<?xml version="1.0" encoding="iso-8859-1"?>
<!-- Generator: Adobe Illustrator 19.0.0, SVG Export Plug-In . SVG Version: 6.00 Build 0)  -->
<svg version="1.1" id="Layer_1" xmlns="http://www.w3.org/2000/svg" xmlns:xlink="http://www.w3.org/1999/xlink" x="0px" y="0px"
	 viewBox="0 0 462.418 462.418" style="enable-background:new 0 0 462.418 462.418;" xml:space="preserve">
<g transform="translate(0 -540.36)">
	<g>
		<g>
			<circle cx="114.769" cy="919.067" r="7.5"/>
			<path d="M231.864,705.369c-54.9,0-99.5,44.2-99.5,98.7c0,26.8,10.4,52,29.1,70.8s43.7,29.2,70.4,29.2c54.2,0,98.2-44.9,98.2-99.9
				c0-26.2-10.3-51-28.9-69.7C282.564,715.669,257.964,705.369,231.864,705.369z M231.864,888.969c-46.6,0-84.5-38.1-84.5-85
				c0-46.1,37.9-83.7,84.5-83.7c45.9,0,83.2,37.6,83.2,83.7C315.064,850.869,277.764,888.969,231.864,888.969z"/>
			<path d="M242.164,782.669c-3.1-1.6-6.6-2.5-10.3-2.5c-13.7,0-24.9,10.7-24.9,23.8c0,14.3,10.7,25,24.9,25c13,0,23.7-11.2,23.7-25
				c0-3.9-1-7.5-2.7-10.8l25-25.1v0l-10.6-10.6L242.164,782.669z M231.864,814.069c-5.8,0-9.9-4.1-9.9-10c0-4.8,4.4-8.8,9.9-8.8
				c4.5,0,8.7,4.2,8.7,8.8C240.564,809.569,236.664,814.069,231.864,814.069z"/>
			<path d="M89.764,911.669h-41l4.7-15.3c1.2-4-1-8.2-5-9.4s-8.2,1-9.4,5l-4.7,15.4c-1.9,3.6-1.8,7.8,0.2,11.6
				c2.5,4.6,7.6,7.6,13,7.6h42.3l0,0c4.2,0,7.4-3.3,7.4-7.4S93.864,911.669,89.764,911.669z"/>
			<path d="M416.664,771.669L416.664,771.669c-21.4-63.4-78.3-107.8-145-115.2v-36.1h86.3c25.7,0,51.2-7.8,70.2-21.4l31-21.2
				c2.7-1.9,3.9-5.3,2.9-8.4c-1-3.1-3.9-5.3-7.2-5.3H7.464c-3.3,0-6.1,2.1-7.1,5.2c-1,3.1,0.1,6.5,2.8,8.4l29.8,21.2
				c18.7,13.4,45.4,21.4,71.5,21.4h86.3v36.1c-29.4,3.3-57.3,13.9-81.5,31.1c-29.3,20.8-51.3,49.9-63.5,84.1l-43.5,130
				c-4.2,11.4-2.4,24.5,4.8,34.9c7.6,11,20.1,17.6,33.3,17.6h17.4v25h346.8v-25h17.4c13,0,25.3-6.4,32.9-17.1
				c7.7-10.9,9.6-24.2,5.3-36.5L416.664,771.669z M104.564,605.369c-23.1-0.1-46.6-7-62.8-18.7l0,0l-10.7-7.6h399.7l-11.1,7.6
				l-0.1,0.1c-16.4,11.8-38.9,18.6-61.5,18.6H104.564z M205.964,620.269h50.8v35.1c-1.6,0-3.3-0.1-4.9-0.1h-41c-1.6,0-3.3,0-4.9,0.1
				V620.269z M389.664,964.069h-316.8v-10h316.8V964.069z M442.664,928.269c-4.9,6.9-12.4,10.8-20.7,10.8h-381.5
				c-8.3,0-16.1-4.2-21-11.1c-4.5-6.5-5.7-14.3-3.1-21.3l43.6-130.2c23-64.5,82.2-106.2,150.7-106.2h41
				c68.7,0,129.3,42.7,150.7,106.2l43.5,128.8C448.764,913.069,447.564,921.469,442.664,928.269z"/>
		</g>
	</g>
</g>
<g>
</g>
<g>
</g>
<g>
</g>
<g>
</g>
<g>
</g>
<g>
</g>
<g>
</g>
<g>
</g>
<g>
</g>
<g>
</g>
<g>
</g>
<g>
</g>
<g>
</g>
<g>
</g>
<g>
</g>
</svg>
